<?xml version="1.0" encoding="UTF-8"?>
<svg version="1.1" xmlns="http://www.w3.org/2000/svg" width="512" height="512">
<path d="M0 0 C0.9355925 -0.00974854 1.871185 -0.01949707 2.83512878 -0.02954102 C23.24416486 -0.1984297 42.96079539 -0.03089418 63.0078125 4.23828125 C63.93158691 4.42551758 64.85536133 4.61275391 65.80712891 4.80566406 C101.4803425 12.13655694 136.04867954 27.05718327 165.0078125 49.23828125 C165.5857959 49.67495117 166.1637793 50.11162109 166.75927734 50.56152344 C175.26586251 57.002323 183.31244993 63.84319145 191.0078125 71.23828125 C191.60239258 71.80562988 192.19697266 72.37297852 192.80957031 72.95751953 C201.15799553 80.96365501 208.80764092 89.18319073 215.69726562 98.47900391 C217.02578341 100.26240538 218.38141287 102.02237641 219.7421875 103.78125 C227.10148221 113.40694237 233.21551204 123.60687263 239.0078125 134.23828125 C239.3697168 134.89876465 239.73162109 135.55924805 240.10449219 136.23974609 C257.60985188 168.57859478 268.92626162 206.31643928 269.24609375 243.23046875 C269.25584229 244.16606125 269.26559082 245.10165375 269.27563477 246.06559753 C269.44452345 266.47463361 269.27698793 286.19126414 265.0078125 306.23828125 C264.82057617 307.16205566 264.63333984 308.08583008 264.44042969 309.03759766 C257.10953681 344.71081125 242.18891048 379.27914829 220.0078125 408.23828125 C219.57114258 408.81626465 219.13447266 409.39424805 218.68457031 409.98974609 C212.24377075 418.49633126 205.4029023 426.54291868 198.0078125 434.23828125 C197.44046387 434.83286133 196.87311523 435.42744141 196.28857422 436.04003906 C188.28243874 444.38846428 180.06290302 452.03810967 170.76708984 458.92773438 C168.98368837 460.25625216 167.22371734 461.61188162 165.46484375 462.97265625 C155.83915138 470.33195096 145.63922112 476.44598079 135.0078125 482.23828125 C134.3473291 482.60018555 133.6868457 482.96208984 133.00634766 483.33496094 C100.66749897 500.84032063 62.92965447 512.15673037 26.015625 512.4765625 C25.0800325 512.48631104 24.14444 512.49605957 23.18049622 512.50610352 C2.77146014 512.6749922 -16.94517039 512.50745668 -36.9921875 508.23828125 C-37.91596191 508.05104492 -38.83973633 507.86380859 -39.79150391 507.67089844 C-75.4647175 500.34000556 -110.03305454 485.41937923 -138.9921875 463.23828125 C-139.5701709 462.80161133 -140.1481543 462.36494141 -140.74365234 461.91503906 C-149.25023751 455.4742395 -157.29682493 448.63337105 -164.9921875 441.23828125 C-165.58676758 440.67093262 -166.18134766 440.10358398 -166.79394531 439.51904297 C-175.14237053 431.51290749 -182.79201592 423.29337177 -189.68164062 413.99755859 C-191.01015841 412.21415712 -192.36578787 410.45418609 -193.7265625 408.6953125 C-201.08585721 399.06962013 -207.19988704 388.86968987 -212.9921875 378.23828125 C-213.3540918 377.57779785 -213.71599609 376.91731445 -214.08886719 376.23681641 C-231.59422688 343.89796772 -242.91063662 306.16012322 -243.23046875 269.24609375 C-243.24021729 268.31050125 -243.24996582 267.37490875 -243.26000977 266.41096497 C-243.42889845 246.00192889 -243.26136293 226.28529836 -238.9921875 206.23828125 C-238.80495117 205.31450684 -238.61771484 204.39073242 -238.42480469 203.43896484 C-231.09391181 167.76575125 -216.17328548 133.19741421 -193.9921875 104.23828125 C-193.55551758 103.66029785 -193.11884766 103.08231445 -192.66894531 102.48681641 C-186.22814575 93.98023124 -179.3872773 85.93364382 -171.9921875 78.23828125 C-171.42483887 77.64370117 -170.85749023 77.04912109 -170.27294922 76.43652344 C-162.26681374 68.08809822 -154.04727802 60.43845283 -144.75146484 53.54882812 C-142.96806337 52.22031034 -141.20809234 50.86468088 -139.44921875 49.50390625 C-129.82352638 42.14461154 -119.62359612 36.03058171 -108.9921875 30.23828125 C-108.3317041 29.87637695 -107.6712207 29.51447266 -106.99072266 29.14160156 C-74.65187397 11.63624187 -36.91402947 0.31983213 0 0 Z " fill="#FEFEFE" transform="translate(242.9921875,-0.23828125)"/>
<path d="M0 0 C1.18605006 1.01954196 2.35379689 2.06085762 3.5 3.125 C4.08910156 3.60195312 4.67820312 4.07890625 5.28515625 4.5703125 C11.52094752 10.02491674 17.1822032 19.8164519 18.5 28.125 C18.98823838 36.10581965 19.03080883 43.44695096 16.05859375 50.9765625 C15.31632414 53.83144561 15.61229049 55.2942131 16.5 58.125 C18.14783385 60.19129207 19.75896023 62.00200261 21.61132812 63.86499023 C22.40916214 64.69020424 22.40916214 64.69020424 23.22311401 65.53208923 C24.98151393 67.34369544 26.7549133 69.13958176 28.53125 70.93359375 C29.76387399 72.18669393 30.99641678 73.43987399 32.22888184 74.69313049 C34.81394576 77.31566538 37.40791254 79.92904564 40.00683594 82.5378418 C43.33381261 85.88119199 46.62466909 89.25784262 49.90814972 92.64384365 C52.44104309 95.24374792 54.99828553 97.81862221 57.56285095 100.38725471 C58.78716829 101.62182672 60.00236383 102.86551517 61.20802307 104.11831474 C67.24353029 110.96864056 67.24353029 110.96864056 75.20776367 114.44241333 C77.57069373 113.9426566 79.37328811 113.24983921 81.5 112.125 C91.07922809 108.93192397 102.6100254 110.58034167 111.6328125 114.57421875 C116.05025158 116.96348757 119.7918833 119.75134089 123.5 123.125 C124.13679688 123.681875 124.77359375 124.23875 125.4296875 124.8125 C134.92739604 133.61724268 137.40531537 143.66911635 138 156.25 C137.79122772 168.39563424 133.596086 179.37325055 124.9140625 188.01171875 C113.80731948 197.73461191 103.33604209 202.11609896 88.59375 201.5078125 C76.5214049 200.62406348 66.57641215 193.87741782 58.36328125 185.3515625 C50.5 175.95518868 50.5 175.95518868 50.5 171.125 C38.62 171.125 26.74 171.125 14.5 171.125 C14.17 172.775 13.84 174.425 13.5 176.125 C7.89683428 187.43138797 0.59111278 192.57944361 -10.5 198.125 C-10.83 209.675 -11.16 221.225 -11.5 233.125 C-9.85 233.785 -8.2 234.445 -6.5 235.125 C6.49074591 242.44832893 14.46892572 252.70474793 18.5 267.125 C19.80863261 280.4091427 17.5199733 292.22216943 9.34375 302.91015625 C8.7353125 303.64105469 8.126875 304.37195313 7.5 305.125 C6.9534375 305.78371094 6.406875 306.44242187 5.84375 307.12109375 C1.45088802 311.93873719 -3.51318242 314.65611602 -9.5 317.125 C-10.65628906 317.60646484 -10.65628906 317.60646484 -11.8359375 318.09765625 C-22.47582458 321.89761592 -35.08341677 321.45842945 -45.5 317.125 C-57.24513725 310.97461002 -66.13152441 300.64163224 -70.5 288.125 C-71.4385718 283.71491585 -71.69304855 279.44141084 -71.75 274.9375 C-71.77578125 273.72707031 -71.8015625 272.51664062 -71.828125 271.26953125 C-71.65312039 266.0366283 -70.01213047 261.10328473 -68.5 256.125 C-69.09949463 255.53074219 -69.69898926 254.93648438 -70.31665039 254.32421875 C-72.57574527 252.08233893 -74.83244873 249.83808469 -77.08764648 247.59228516 C-78.05742273 246.62748541 -79.0281007 245.66359105 -79.99975586 244.70068359 C-89.09767336 235.68253123 -89.09767336 235.68253123 -92.78125 231.37890625 C-97.93126787 225.3801189 -103.4508758 219.72499916 -108.97875977 214.07641602 C-110.29179881 212.72638996 -111.59579319 211.36751155 -112.89086914 210.00024414 C-114.7797 208.00820887 -116.69627826 206.04705246 -118.62109375 204.08984375 C-119.19218369 203.4754393 -119.76327362 202.86103485 -120.35166931 202.22801208 C-123.46154726 199.07816841 -123.46154726 199.07816841 -127.59817505 197.94534302 C-130.74881051 198.29993408 -133.63089256 199.16950347 -136.625 200.1875 C-148.63243118 203.09252367 -159.34936537 200.93769006 -169.8125 194.6875 C-171.05207962 193.84851623 -172.28217463 192.99526017 -173.5 192.125 C-174.510625 191.42375 -175.52125 190.7225 -176.5625 190 C-183.88342558 183.61663164 -189.74400567 172.71347137 -190.70703125 163.046875 C-191.52462987 149.49809791 -189.84596026 139.11624005 -181.5 128.125 C-181.04753906 127.4959375 -180.59507812 126.866875 -180.12890625 126.21875 C-174.00598244 118.30925069 -164.1376893 113.32437012 -154.5 111.125 C-140.04934604 109.59235488 -127.92610494 113.19122517 -116.5 122.125 C-111.52490419 126.84925064 -107.47119085 131.93501907 -104.5 138.125 C-104.5 139.115 -104.5 140.105 -104.5 141.125 C-92.62 141.125 -80.74 141.125 -68.5 141.125 C-67.51 138.155 -67.51 138.155 -66.5 135.125 C-60.82751612 124.44844594 -53.36861167 119.55930584 -42.5 114.125 C-42.17 102.575 -41.84 91.025 -41.5 79.125 C-44.47 78.135 -44.47 78.135 -47.5 77.125 C-59.79851223 69.49654138 -68.10979294 58.13190812 -71.5 44.125 C-72.79032271 29.54135261 -69.81088082 17.72936984 -60.5 6.125 C-44.05548667 -9.6980637 -19.38858231 -13.89701854 0 0 Z " fill="#2397F3" transform="translate(282.5,99.875)"/>
<path d="M0 0 C2.09020904 1.72661018 3.92053495 3.41395055 5.80004883 5.34594727 C6.35673248 5.90204681 6.91341614 6.45814636 7.48696899 7.03109741 C9.31996705 8.86687649 11.13839934 10.71640338 12.95703125 12.56640625 C14.22696424 13.84380151 15.49778474 15.12031501 16.76945496 16.39598083 C20.11067743 19.75246046 23.43971278 23.12077909 26.76635742 26.49169922 C30.16443733 29.93072962 33.57389857 33.35843504 36.98242188 36.78710938 C43.66614021 43.51370006 50.33703919 50.25285197 57 57 C56.34 58.65 55.68 60.3 55 62 C50.16258928 62.32338703 45.33154061 62.55803078 40.48583984 62.71411133 C38.84182169 62.77918099 37.19854747 62.86768697 35.55712891 62.98071289 C24.61224989 63.71502323 24.61224989 63.71502323 20 62 C16.85297771 58.81060859 15.41461732 56.30727273 13.54443359 52.25463867 C9.37964755 43.47804007 1.40088584 40.20044292 -7 36 C-7 24.12 -7 12.24 -7 0 C-4.1773539 -1.41132305 -2.99285229 -0.98025693 0 0 Z " fill="#FCFDFE" transform="translate(278,179)"/>
<path d="M0 0 C4.97984471 -0.32329201 9.95351535 -0.55799957 14.94140625 -0.71411133 C16.63389455 -0.77919461 18.3256597 -0.86770958 20.015625 -0.98071289 C31.26942354 -1.71393502 31.26942354 -1.71393502 36 0 C39.95812953 3.92293695 41.71058172 7.92494777 44 13 C46.79814204 16.86564132 49.42679314 19.19769636 53.5 21.6875 C54.4384375 22.26886719 55.376875 22.85023438 56.34375 23.44921875 C58.51543642 24.71710038 60.75077867 25.87538934 63 27 C63 38.55 63 50.1 63 62 C57 63 57 63 54.06983948 60.95199585 C53.02168585 59.94236738 51.99244419 58.91288391 50.97875977 57.86865234 C50.41057022 57.31112274 49.84238068 56.75359314 49.25697327 56.1791687 C47.38392029 54.33182429 45.53752427 52.46017085 43.69140625 50.5859375 C42.39830711 49.29501388 41.10409654 48.00520269 39.80882263 46.71646118 C37.0985456 44.01199241 34.40107945 41.29552254 31.7121582 38.56982422 C28.26149421 35.07365898 24.7825587 31.6073336 21.29377842 28.14925194 C18.61730716 25.49055978 15.95551284 22.81755926 13.29804802 20.13988113 C12.02046293 18.85577088 10.73852525 17.57597623 9.4522419 16.30057907 C7.65828464 14.51713079 5.88477527 12.7155857 4.11547852 10.90771484 C3.57896667 10.38177734 3.04245483 9.85583984 2.48968506 9.31396484 C1.04127502 7.80990601 1.04127502 7.80990601 -1 5 C-0.81971741 2.13076782 -0.81971741 2.13076782 0 0 Z " fill="#FBFDFE" transform="translate(178,271)"/>
<path d="M0 0 C4.7717503 2.12373989 7.60326475 4.44574549 9.84765625 9.30859375 C10.54924596 14.74591399 9.92559242 18.7360882 7.23828125 23.54296875 C4.27482839 27.30555497 0.3883257 28.85184419 -4.23828125 29.68359375 C-9.35992499 29.99756425 -12.34315668 28.59834622 -16.15234375 25.30859375 C-20.04730669 21.00363471 -20.84325574 17.41629228 -20.60546875 11.77734375 C-19.66636414 6.66084276 -16.71766854 3.62008209 -12.83984375 0.37109375 C-8.38862693 -1.38868964 -4.49407629 -1.44365064 0 0 Z " fill="#F9FCFE" transform="translate(261.15234375,241.69140625)"/>
<path d="M0 0 C3.3125 1.75 3.3125 1.75 6 4 C6.70511719 4.58523437 7.41023438 5.17046875 8.13671875 5.7734375 C11.12039483 9.33883659 10.54323049 12.60742018 10.390625 17.08203125 C9.73380545 21.98847331 7.55759831 24.63120149 3.9375 27.8125 C-0.1320131 30.30671771 -4.34855533 30.63549149 -9 30 C-13.39260284 27.71922545 -16.22666619 25.07333403 -19 21 C-19.96900996 16.54931471 -19.93098864 12.45779267 -19 8 C-14.06922424 1.23970563 -8.10557947 -0.99782007 0 0 Z " fill="#F9FCFE" transform="translate(380,241)"/>
<path d="M0 0 C5.37271941 0.7057996 7.85907492 3.16124793 11.2890625 7.1328125 C13.29104552 11.13677855 13.63339037 13.99666693 12.9140625 18.3828125 C10.96020329 23.73021664 8.00169963 26.83899393 2.9140625 29.3828125 C-2.14276498 30.12714067 -7.10188592 30.82393104 -11.3984375 27.703125 C-15.64602494 22.87149428 -17.45564514 19.02433607 -17.37109375 12.44140625 C-16.03518689 2.7972567 -8.39042576 -0.30621992 0 0 Z " fill="#F9FCFE" transform="translate(258.0859375,121.6171875)"/>
<path d="M0 0 C3.3125 1.75 3.3125 1.75 6 4 C6.70511719 4.58523437 7.41023438 5.17046875 8.13671875 5.7734375 C11.12039483 9.33883659 10.54323049 12.60742018 10.390625 17.08203125 C9.73380545 21.98847331 7.55759831 24.63120149 3.9375 27.8125 C-0.13588918 30.30909337 -4.34506488 30.62713547 -9 30 C-13.79876079 27.6006196 -16.6704397 24.83831756 -19 20 C-19.65658569 15.40390014 -19.59339056 11.43662977 -17.8125 7.125 C-12.53686174 0.93976894 -7.94333569 -0.97784739 0 0 Z " fill="#F9FCFE" transform="translate(141,241)"/>
<path d="M0 0 C5.37271941 0.7057996 7.85907492 3.16124793 11.2890625 7.1328125 C13.29104552 11.13677855 13.63339037 13.99666693 12.9140625 18.3828125 C11.21086837 23.04418591 9.18468584 25.8204385 4.9140625 28.3828125 C-1.34446439 29.94744422 -6.31484666 29.35924124 -12.0859375 26.3828125 C-15.81981629 22.64893371 -16.9667055 19.83744295 -17.3984375 14.5703125 C-17.32959428 9.21037621 -14.63011702 6.24671201 -11.3125 2.2421875 C-7.74453121 -0.73737942 -4.47425349 -0.16329392 0 0 Z " fill="#FAFCFE" transform="translate(258.0859375,360.6171875)"/>
<path d="M0 0 C0.66 0.33 1.32 0.66 2 1 C-2.29 5.29 -6.58 9.58 -11 14 C-11 10.30159372 -10.17133056 9.68584567 -7.75 7 C-7.14671875 6.319375 -6.5434375 5.63875 -5.921875 4.9375 C-4.06233388 3.06284066 -2.15205789 1.52358081 0 0 Z " fill="#47A8F5" transform="translate(230,219)"/>
<path d="M0 0 C0.66 0.33 1.32 0.66 2 1 C-1.63 4.63 -5.26 8.26 -9 12 C-9.66 11.67 -10.32 11.34 -11 11 C-7.81316569 6.66590534 -4.13621084 3.3810038 0 0 Z " fill="#42A5F4" transform="translate(230,99)"/>
</svg>
